<svg data-v-fde0c5aa="" xmlns="http://www.w3.org/2000/svg" viewBox="0 0 300 300" class="font"><!----><defs data-v-fde0c5aa=""><!----></defs><rect data-v-fde0c5aa="" fill="#E80D4A" x="0" y="0" width="300px" height="300px" class="logo-background-square"></rect><defs data-v-fde0c5aa=""><!----></defs><g data-v-fde0c5aa="" id="c4c4fd4d-19e5-49c1-9597-5a1826096b2e" fill="#F6CE00" transform="matrix(2.835712075877452,0,0,2.835712075877452,42.118058823306704,120.0316976368345)"><path d="M1.05 5.89L1.05 5.89L-0.67 13.61L-0.67 13.61Q-0.77 13.94-0.74 14.16L-0.74 14.16L-0.74 14.16Q-0.71 14.38-0.60 14.53L-0.60 14.53L-0.60 14.53Q-0.49 14.69-0.32 14.80L-0.32 14.80L-0.32 14.80Q-0.14 14.92 0.06 15.05L0.06 15.05L0.06 15.05Q0.59 15.33 1.01 15.52L1.01 15.52L1.01 15.52Q1.43 15.71 2.00 15.90L2.00 15.90L2.00 15.90Q3.12 16.31 4.19 16.03L4.19 16.03L4.19 16.03Q6.23 15.64 7.79 15.01L7.79 15.01L7.79 15.01Q9.35 14.38 10.45 13.61L10.45 13.61L10.45 13.61Q11.55 12.84 12.20 11.98L12.20 11.98L12.20 11.98Q12.85 11.13 13.08 10.28L13.08 10.28L13.08 10.28Q13.31 9.44 13.13 8.64L13.13 8.64L13.13 8.64Q12.94 7.85 12.35 7.22L12.35 7.22L12.35 7.22Q11.70 6.48 10.81 6.03L10.81 6.03L10.81 6.03Q9.91 5.59 8.88 5.36L8.88 5.36L8.88 5.36Q7.85 5.14 6.76 5.10L6.76 5.10L6.76 5.10Q5.67 5.07 4.63 5.17L4.63 5.17L4.63 5.17Q3.60 5.26 2.67 5.47L2.67 5.47L2.67 5.47Q1.74 5.67 1.05 5.89ZM3.18 13.85L3.18 13.85L3.18 13.85Q3.71 12.15 4.28 10.56L4.28 10.56L4.28 10.56Q4.84 8.96 5.52 7.43L5.52 7.43L5.52 7.43Q6.71 7.20 7.54 7.38L7.54 7.38L7.54 7.38Q8.37 7.57 8.72 7.97L8.72 7.97L8.72 7.97Q8.88 8.16 8.97 8.44L8.97 8.44L8.97 8.44Q9.06 8.72 9.03 9.09L9.03 9.09L9.03 9.09Q8.99 9.62 8.66 10.26L8.66 10.26L8.66 10.26Q8.33 10.91 7.63 11.55L7.63 11.55L7.63 11.55Q6.93 12.19 5.83 12.80L5.83 12.80L5.83 12.80Q4.73 13.40 3.18 13.85ZM23.53 13.17L23.53 13.17L23.53 13.17Q23.67 14.25 23.87 15.08L23.87 15.08L23.87 15.08Q23.97 15.47 24.17 15.62L24.17 15.62L24.17 15.62Q24.37 15.78 24.86 15.88L24.86 15.88L24.86 15.88Q25.35 15.99 25.81 16.01L25.81 16.01L25.81 16.01Q26.26 16.03 26.80 16.03L26.80 16.03L26.80 16.03Q27.33 16.03 27.48 15.93L27.48 15.93L27.48 15.93Q27.62 15.83 27.59 15.58L27.59 15.58L27.59 15.58Q27.47 14.41 27.36 13.11L27.36 13.11L27.36 13.11Q27.26 11.82 27.19 10.57L27.19 10.57L27.19 10.57Q27.12 9.32 27.10 8.21L27.10 8.21L27.10 8.21Q27.08 7.10 27.10 6.30L27.10 6.30L27.10 6.30Q27.12 5.98 26.95 5.78L26.95 5.78L26.95 5.78Q26.78 5.57 26.21 5.46L26.21 5.46L26.21 5.46Q25.80 5.39 25.40 5.32L25.40 5.32L25.40 5.32Q24.99 5.25 24.51 5.19L24.51 5.19L24.51 5.19Q24.04 5.12 23.47 5.08L23.47 5.08L23.47 5.08Q22.90 5.03 22.18 5.00L22.18 5.00L22.18 5.00Q21.35 4.96 20.92 5.14L20.92 5.14L20.92 5.14Q20.48 5.32 20.20 5.61L20.20 5.61L20.20 5.61Q19.68 6.17 19.10 6.87L19.10 6.87L19.10 6.87Q18.52 7.57 17.91 8.35L17.91 8.35L17.91 8.35Q17.30 9.13 16.70 9.94L16.70 9.94L16.70 9.94Q16.09 10.75 15.53 11.54L15.53 11.54L15.53 11.54Q14.97 12.33 14.48 13.07L14.48 13.07L14.48 13.07Q13.99 13.80 13.62 14.42L13.62 14.42L13.62 14.42Q13.47 14.71 13.46 14.89L13.46 14.89L13.46 14.89Q13.45 15.06 13.54 15.18L13.54 15.18L13.54 15.18Q13.64 15.29 13.82 15.37L13.82 15.37L13.82 15.37Q14 15.44 14.24 15.55L14.24 15.55L14.24 15.55Q14.53 15.67 14.85 15.76L14.85 15.76L14.85 15.76Q15.18 15.85 15.43 15.92L15.43 15.92L15.43 15.92Q15.89 16.03 16.12 15.99L16.12 15.99L16.12 15.99Q16.35 15.95 16.55 15.71L16.55 15.71L16.55 15.71Q16.84 15.26 17.16 14.79L17.16 14.79L17.16 14.79Q17.49 14.32 17.93 13.79L17.93 13.79L17.93 13.79Q18.49 13.69 19.16 13.61L19.16 13.61L19.16 13.61Q19.82 13.52 20.55 13.45L20.55 13.45L20.55 13.45Q21.28 13.38 22.04 13.31L22.04 13.31L22.04 13.31Q22.79 13.24 23.53 13.17ZM19.74 11.35L19.74 11.35L19.74 11.35Q20.65 10.16 21.52 9.11L21.52 9.11L21.52 9.11Q22.39 8.05 23.10 7.21L23.10 7.21L23.10 7.21Q23.10 8.13 23.16 9.11L23.16 9.11L23.16 9.11Q23.21 10.09 23.28 11.10L23.28 11.10L23.28 11.10Q21.50 11.19 19.74 11.35ZM42.29 6.90L42.29 6.90L42.29 6.90Q42.57 6.89 42.73 6.86L42.73 6.86L42.73 6.86Q42.88 6.83 42.94 6.78L42.94 6.78L42.94 6.78Q42.99 6.73 42.98 6.64L42.98 6.64L42.98 6.64Q42.97 6.55 42.91 6.43L42.91 6.43L42.91 6.43Q42.76 6.15 42.49 5.85L42.49 5.85L42.49 5.85Q42.22 5.56 41.86 5.31L41.86 5.31L41.86 5.31Q41.68 5.17 41.42 5.10L41.42 5.10L41.42 5.10Q41.16 5.04 40.63 5.04L40.63 5.04L40.63 5.04Q39.93 5.05 39.09 5.09L39.09 5.09L39.09 5.09Q38.26 5.12 37.36 5.17L37.36 5.17L37.36 5.17Q36.46 5.21 35.52 5.26L35.52 5.26L35.52 5.26Q34.59 5.32 33.69 5.39L33.69 5.39L33.69 5.39Q32.79 5.46 31.95 5.54L31.95 5.54L31.95 5.54Q31.11 5.61 30.41 5.70L30.41 5.70L30.41 5.70Q30.06 5.75 29.94 5.84L29.94 5.84L29.94 5.84Q29.82 5.92 30.00 6.17L30.00 6.17L30.00 6.17Q30.20 6.41 30.48 6.78L30.48 6.78L30.48 6.78Q30.77 7.14 31.15 7.38L31.15 7.38L31.15 7.38Q31.50 7.62 31.79 7.67L31.79 7.67L31.79 7.67Q32.07 7.71 32.54 7.64L32.54 7.64L32.54 7.64Q32.89 7.59 33.38 7.55L33.38 7.55L33.38 7.55Q33.88 7.50 34.41 7.45L34.41 7.45L34.41 7.45Q34.09 8.25 33.77 9.23L33.77 9.23L33.77 9.23Q33.45 10.21 33.17 11.19L33.17 11.19L33.17 11.19Q32.89 12.17 32.68 13.08L32.68 13.08L32.68 13.08Q32.47 13.99 32.38 14.63L32.38 14.63L32.38 14.63Q32.28 14.90 32.38 15.09L32.38 15.09L32.38 15.09Q32.47 15.27 32.69 15.41L32.69 15.41L32.69 15.41Q32.91 15.55 33.26 15.65L33.26 15.65L33.26 15.65Q33.61 15.75 34.03 15.83L34.03 15.83L34.03 15.83Q34.47 15.92 34.82 15.99L34.82 15.99L34.82 15.99Q35.17 16.06 35.43 16.07L35.43 16.07L35.43 16.07Q35.70 16.09 35.85 16.02L35.85 16.02L35.85 16.02Q36.01 15.95 36.04 15.75L36.04 15.75L36.04 15.75Q36.32 14.76 36.67 13.65L36.67 13.65L36.67 13.65Q37.03 12.54 37.42 11.42L37.42 11.42L37.42 11.42Q37.81 10.29 38.22 9.19L38.22 9.19L38.22 9.19Q38.63 8.09 39.00 7.10L39.00 7.10L39.00 7.10Q39.90 7.04 40.74 6.99L40.74 6.99L40.74 6.99Q41.58 6.94 42.29 6.90ZM48.40 5.88L48.40 5.88L48.40 5.88Q47.91 5.68 47.26 5.51L47.26 5.51L47.26 5.51Q46.62 5.33 46.06 5.25L46.06 5.25L46.06 5.25Q45.50 5.15 45.23 5.22L45.23 5.22L45.23 5.22Q44.95 5.29 44.80 5.60L44.80 5.60L44.80 5.60Q44.58 6.12 44.32 6.86L44.32 6.86L44.32 6.86Q44.07 7.60 43.81 8.44L43.81 8.44L43.81 8.44Q43.54 9.28 43.29 10.18L43.29 10.18L43.29 10.18Q43.04 11.07 42.83 11.90L42.83 11.90L42.83 11.90Q42.62 12.73 42.45 13.43L42.45 13.43L42.45 13.43Q42.29 14.14 42.24 14.62L42.24 14.62L42.24 14.62Q42.17 14.98 42.31 15.18L42.31 15.18L42.31 15.18Q42.45 15.39 42.91 15.54L42.91 15.54L42.91 15.54Q43.36 15.69 43.84 15.79L43.84 15.79L43.84 15.79Q44.32 15.89 44.86 15.99L44.86 15.99L44.86 15.99Q45.39 16.07 45.57 16.00L45.57 16.00L45.57 16.00Q45.75 15.93 45.84 15.69L45.84 15.69L45.84 15.69Q46.02 15.08 46.26 14.32L46.26 14.32L46.26 14.32Q46.49 13.55 46.77 12.73L46.77 12.73L46.77 12.73Q47.04 11.90 47.33 11.05L47.33 11.05L47.33 11.05Q47.63 10.19 47.92 9.40L47.92 9.40L47.92 9.40Q48.22 8.61 48.50 7.91L48.50 7.91L48.50 7.91Q48.78 7.21 49.01 6.69L49.01 6.69L49.01 6.69Q49.07 6.55 49.08 6.44L49.08 6.44L49.08 6.44Q49.10 6.33 49.03 6.24L49.03 6.24L49.03 6.24Q48.97 6.15 48.82 6.06L48.82 6.06L48.82 6.06Q48.66 5.98 48.40 5.88ZM57.83 11.38L57.83 11.38L57.83 11.38Q57.61 10.75 57.39 10.07L57.39 10.07L57.39 10.07Q57.18 9.39 56.98 8.77L56.98 8.77L56.98 8.77Q56.78 8.15 56.63 7.62L56.63 7.62L56.63 7.62Q56.48 7.10 56.38 6.78L56.38 6.78L56.38 6.78Q56.27 6.36 56.03 6.14L56.03 6.14L56.03 6.14Q55.80 5.92 55.24 5.78L55.24 5.78L55.24 5.78Q54.57 5.59 53.94 5.46L53.94 5.46L53.94 5.46Q53.31 5.33 52.65 5.22L52.65 5.22L52.65 5.22Q52.12 5.14 51.79 5.22L51.79 5.22L51.79 5.22Q51.46 5.31 51.30 5.63L51.30 5.63L51.30 5.63Q51.04 6.22 50.78 7L50.78 7L50.78 7Q50.51 7.78 50.24 8.66L50.24 8.66L50.24 8.66Q49.97 9.53 49.71 10.42L49.71 10.42L49.71 10.42Q49.46 11.31 49.25 12.11L49.25 12.11L49.25 12.11Q49.04 12.91 48.89 13.54L48.89 13.54L48.89 13.54Q48.73 14.18 48.68 14.55L48.68 14.55L48.68 14.55Q48.58 14.91 48.71 15.11L48.71 15.11L48.71 15.11Q48.85 15.32 49.29 15.47L49.29 15.47L49.29 15.47Q49.74 15.67 50.25 15.76L50.25 15.76L50.25 15.76Q50.75 15.85 51.24 15.93L51.24 15.93L51.24 15.93Q51.77 16.03 51.96 15.97L51.96 15.97L51.96 15.97Q52.15 15.90 52.22 15.67L52.22 15.67L52.22 15.67Q52.35 15.16 52.54 14.50L52.54 14.50L52.54 14.50Q52.74 13.85 52.98 13.10L52.98 13.10L52.98 13.10Q53.21 12.36 53.47 11.56L53.47 11.56L53.47 11.56Q53.73 10.75 53.98 9.97L53.98 9.97L53.98 9.97Q54.22 10.63 54.49 11.28L54.49 11.28L54.49 11.28Q54.77 11.94 55.05 12.57L55.05 12.57L55.05 12.57Q55.34 13.19 55.63 13.73L55.63 13.73L55.63 13.73Q55.92 14.28 56.20 14.70L56.20 14.70L56.20 14.70Q56.57 15.32 57.46 15.54L57.46 15.54L57.46 15.54Q57.95 15.65 58.43 15.74L58.43 15.74L58.43 15.74Q58.91 15.83 59.40 15.90L59.40 15.90L59.40 15.90Q60.49 16.07 60.61 15.54L60.61 15.54L60.61 15.54Q60.87 14.57 61.22 13.38L61.22 13.38L61.22 13.38Q61.57 12.18 61.95 10.96L61.95 10.96L61.95 10.96Q62.33 9.74 62.71 8.60L62.71 8.60L62.71 8.60Q63.10 7.46 63.43 6.61L63.43 6.61L63.43 6.61Q63.49 6.47 63.50 6.34L63.50 6.34L63.50 6.34Q63.52 6.22 63.46 6.11L63.46 6.11L63.46 6.11Q63.41 6.01 63.26 5.91L63.26 5.91L63.26 5.91Q63.11 5.81 62.85 5.71L62.85 5.71L62.85 5.71Q62.52 5.59 62.29 5.52L62.29 5.52L62.29 5.52Q62.05 5.45 61.83 5.39L61.83 5.39L61.83 5.39Q61.61 5.33 61.40 5.30L61.40 5.30L61.40 5.30Q61.18 5.26 60.91 5.22L60.91 5.22L60.91 5.22Q60.35 5.14 60.05 5.21L60.05 5.21L60.05 5.21Q59.75 5.29 59.64 5.60L59.64 5.60L59.64 5.60Q59.18 6.79 58.68 8.28L58.68 8.28L58.68 8.28Q58.18 9.77 57.83 11.38ZM72.77 13.17L72.77 13.17L72.77 13.17Q72.91 14.25 73.11 15.08L73.11 15.08L73.11 15.08Q73.21 15.47 73.41 15.62L73.41 15.62L73.41 15.62Q73.61 15.78 74.10 15.88L74.10 15.88L74.10 15.88Q74.59 15.99 75.05 16.01L75.05 16.01L75.05 16.01Q75.50 16.03 76.03 16.03L76.03 16.03L76.03 16.03Q76.57 16.03 76.71 15.93L76.71 15.93L76.71 15.93Q76.86 15.83 76.83 15.58L76.83 15.58L76.83 15.58Q76.71 14.41 76.60 13.11L76.60 13.11L76.60 13.11Q76.50 11.82 76.43 10.57L76.43 10.57L76.43 10.57Q76.36 9.32 76.33 8.21L76.33 8.21L76.33 8.21Q76.31 7.10 76.34 6.30L76.34 6.30L76.34 6.30Q76.36 5.98 76.19 5.78L76.19 5.78L76.19 5.78Q76.02 5.57 75.45 5.46L75.45 5.46L75.45 5.46Q75.04 5.39 74.63 5.32L74.63 5.32L74.63 5.32Q74.23 5.25 73.75 5.19L73.75 5.19L73.75 5.19Q73.28 5.12 72.71 5.08L72.71 5.08L72.71 5.08Q72.14 5.03 71.41 5.00L71.41 5.00L71.41 5.00Q70.59 4.96 70.15 5.14L70.15 5.14L70.15 5.14Q69.72 5.32 69.44 5.61L69.44 5.61L69.44 5.61Q68.92 6.17 68.34 6.87L68.34 6.87L68.34 6.87Q67.76 7.57 67.15 8.35L67.15 8.35L67.15 8.35Q66.54 9.13 65.93 9.94L65.93 9.94L65.93 9.94Q65.32 10.75 64.76 11.54L64.76 11.54L64.76 11.54Q64.20 12.33 63.71 13.07L63.71 13.07L63.71 13.07Q63.22 13.80 62.86 14.42L62.86 14.42L62.86 14.42Q62.71 14.71 62.70 14.89L62.70 14.89L62.70 14.89Q62.69 15.06 62.78 15.18L62.78 15.18L62.78 15.18Q62.87 15.29 63.06 15.37L63.06 15.37L63.06 15.37Q63.24 15.44 63.48 15.55L63.48 15.55L63.48 15.55Q63.77 15.67 64.09 15.76L64.09 15.76L64.09 15.76Q64.41 15.85 64.67 15.92L64.67 15.92L64.67 15.92Q65.13 16.03 65.36 15.99L65.36 15.99L65.36 15.99Q65.59 15.95 65.79 15.71L65.79 15.71L65.79 15.71Q66.08 15.26 66.40 14.79L66.40 14.79L66.40 14.79Q66.72 14.32 67.17 13.79L67.17 13.79L67.17 13.79Q67.73 13.69 68.40 13.61L68.40 13.61L68.40 13.61Q69.06 13.52 69.79 13.45L69.79 13.45L69.79 13.45Q70.52 13.38 71.27 13.31L71.27 13.31L71.27 13.31Q72.03 13.24 72.77 13.17ZM68.98 11.35L68.98 11.35L68.98 11.35Q69.89 10.16 70.76 9.11L70.76 9.11L70.76 9.11Q71.62 8.05 72.34 7.21L72.34 7.21L72.34 7.21Q72.34 8.13 72.39 9.11L72.39 9.11L72.39 9.11Q72.45 10.09 72.52 11.10L72.52 11.10L72.52 11.10Q70.74 11.19 68.98 11.35Z"></path></g><!----><!----></svg>