<svg data-v-423bf9ae="" xmlns="http://www.w3.org/2000/svg" viewBox="0 0 417.4476594607751 185" class="iconAbove"><!----><!----><!----><g data-v-423bf9ae="" id="dc64a4a4-a05b-4944-988e-d80468ca5d52" fill="#ffffff" transform="matrix(5.380733495362265,0,0,5.380733495362265,4.018997794935956,97.2065853552539)"><path d="M1.05 5.89L1.05 5.89L-0.67 13.61L-0.67 13.61Q-0.77 13.94-0.74 14.16L-0.74 14.16L-0.74 14.16Q-0.71 14.38-0.60 14.53L-0.60 14.53L-0.60 14.53Q-0.49 14.69-0.32 14.80L-0.32 14.80L-0.32 14.80Q-0.14 14.92 0.06 15.05L0.06 15.05L0.06 15.05Q0.59 15.33 1.01 15.52L1.01 15.52L1.01 15.52Q1.43 15.71 2.00 15.90L2.00 15.90L2.00 15.90Q3.12 16.31 4.19 16.03L4.19 16.03L4.19 16.03Q6.23 15.64 7.79 15.01L7.79 15.01L7.79 15.01Q9.35 14.38 10.45 13.61L10.45 13.61L10.45 13.61Q11.55 12.84 12.20 11.98L12.20 11.98L12.20 11.98Q12.85 11.13 13.08 10.28L13.08 10.28L13.08 10.28Q13.31 9.44 13.13 8.64L13.13 8.64L13.13 8.64Q12.94 7.85 12.35 7.22L12.35 7.22L12.35 7.22Q11.70 6.48 10.81 6.03L10.81 6.03L10.81 6.03Q9.91 5.59 8.88 5.36L8.88 5.36L8.88 5.36Q7.85 5.14 6.76 5.10L6.76 5.10L6.76 5.10Q5.67 5.07 4.63 5.17L4.63 5.17L4.63 5.17Q3.60 5.26 2.67 5.47L2.67 5.47L2.67 5.47Q1.74 5.67 1.05 5.89ZM3.18 13.85L3.18 13.85L3.18 13.85Q3.71 12.15 4.28 10.56L4.28 10.56L4.28 10.56Q4.84 8.96 5.52 7.43L5.52 7.43L5.52 7.43Q6.71 7.20 7.54 7.38L7.54 7.38L7.54 7.38Q8.37 7.57 8.72 7.97L8.72 7.97L8.72 7.97Q8.88 8.16 8.97 8.44L8.97 8.44L8.97 8.44Q9.06 8.72 9.03 9.09L9.03 9.09L9.03 9.09Q8.99 9.62 8.66 10.26L8.66 10.26L8.66 10.26Q8.33 10.91 7.63 11.55L7.63 11.55L7.63 11.55Q6.93 12.19 5.83 12.80L5.83 12.80L5.83 12.80Q4.73 13.40 3.18 13.85ZM23.53 13.17L23.53 13.17L23.53 13.17Q23.67 14.25 23.87 15.08L23.87 15.08L23.87 15.08Q23.97 15.47 24.17 15.62L24.17 15.62L24.17 15.62Q24.37 15.78 24.86 15.88L24.86 15.88L24.86 15.88Q25.35 15.99 25.81 16.01L25.81 16.01L25.81 16.01Q26.26 16.03 26.80 16.03L26.80 16.03L26.80 16.03Q27.33 16.03 27.48 15.93L27.48 15.93L27.48 15.93Q27.62 15.83 27.59 15.58L27.59 15.58L27.59 15.58Q27.47 14.41 27.36 13.11L27.36 13.11L27.36 13.11Q27.26 11.82 27.19 10.57L27.19 10.57L27.19 10.57Q27.12 9.32 27.10 8.21L27.10 8.21L27.10 8.21Q27.08 7.10 27.10 6.30L27.10 6.30L27.10 6.30Q27.12 5.98 26.95 5.78L26.95 5.78L26.95 5.78Q26.78 5.57 26.21 5.46L26.21 5.46L26.21 5.46Q25.80 5.39 25.40 5.32L25.40 5.32L25.40 5.32Q24.99 5.25 24.51 5.19L24.51 5.19L24.51 5.19Q24.04 5.12 23.47 5.08L23.47 5.08L23.47 5.08Q22.90 5.03 22.18 5.00L22.18 5.00L22.18 5.00Q21.35 4.96 20.92 5.14L20.92 5.14L20.92 5.14Q20.48 5.32 20.20 5.61L20.20 5.61L20.20 5.61Q19.68 6.17 19.10 6.87L19.10 6.87L19.10 6.87Q18.52 7.57 17.91 8.35L17.91 8.35L17.91 8.35Q17.30 9.13 16.70 9.94L16.70 9.94L16.70 9.94Q16.09 10.75 15.53 11.54L15.53 11.54L15.53 11.54Q14.97 12.33 14.48 13.07L14.48 13.07L14.48 13.07Q13.99 13.80 13.62 14.42L13.62 14.42L13.62 14.42Q13.47 14.71 13.46 14.89L13.46 14.89L13.46 14.89Q13.45 15.06 13.54 15.18L13.54 15.18L13.54 15.18Q13.64 15.29 13.82 15.37L13.82 15.37L13.82 15.37Q14 15.44 14.24 15.55L14.24 15.55L14.24 15.55Q14.53 15.67 14.85 15.76L14.85 15.76L14.85 15.76Q15.18 15.85 15.43 15.92L15.43 15.92L15.43 15.92Q15.89 16.03 16.12 15.99L16.12 15.99L16.12 15.99Q16.35 15.95 16.55 15.71L16.55 15.71L16.55 15.71Q16.84 15.26 17.16 14.79L17.16 14.79L17.16 14.79Q17.49 14.32 17.93 13.79L17.93 13.79L17.93 13.79Q18.49 13.69 19.16 13.61L19.16 13.61L19.16 13.61Q19.82 13.52 20.55 13.45L20.55 13.45L20.55 13.45Q21.28 13.38 22.04 13.31L22.04 13.31L22.04 13.31Q22.79 13.24 23.53 13.17ZM19.74 11.35L19.74 11.35L19.74 11.35Q20.65 10.16 21.52 9.11L21.52 9.11L21.52 9.11Q22.39 8.05 23.10 7.21L23.10 7.21L23.10 7.21Q23.10 8.13 23.16 9.11L23.16 9.11L23.16 9.11Q23.21 10.09 23.28 11.10L23.28 11.10L23.28 11.10Q21.50 11.19 19.74 11.35ZM42.29 6.90L42.29 6.90L42.29 6.90Q42.57 6.89 42.73 6.86L42.73 6.86L42.73 6.86Q42.88 6.83 42.94 6.78L42.94 6.78L42.94 6.78Q42.99 6.73 42.98 6.64L42.98 6.64L42.98 6.64Q42.97 6.55 42.91 6.43L42.91 6.43L42.91 6.43Q42.76 6.15 42.49 5.85L42.49 5.85L42.49 5.85Q42.22 5.56 41.86 5.31L41.86 5.31L41.86 5.31Q41.68 5.17 41.42 5.10L41.42 5.10L41.42 5.10Q41.16 5.04 40.63 5.04L40.63 5.04L40.63 5.04Q39.93 5.05 39.09 5.09L39.09 5.09L39.09 5.09Q38.26 5.12 37.36 5.17L37.36 5.17L37.36 5.17Q36.46 5.21 35.52 5.26L35.52 5.26L35.52 5.26Q34.59 5.32 33.69 5.39L33.69 5.39L33.69 5.39Q32.79 5.46 31.95 5.54L31.95 5.54L31.95 5.54Q31.11 5.61 30.41 5.70L30.41 5.70L30.41 5.70Q30.06 5.75 29.94 5.84L29.94 5.84L29.94 5.84Q29.82 5.92 30.00 6.17L30.00 6.17L30.00 6.17Q30.20 6.41 30.48 6.78L30.48 6.78L30.48 6.78Q30.77 7.14 31.15 7.38L31.15 7.38L31.15 7.38Q31.50 7.62 31.79 7.67L31.79 7.67L31.79 7.67Q32.07 7.71 32.54 7.64L32.54 7.64L32.54 7.64Q32.89 7.59 33.38 7.55L33.38 7.55L33.38 7.55Q33.88 7.50 34.41 7.45L34.41 7.45L34.41 7.45Q34.09 8.25 33.77 9.23L33.77 9.23L33.77 9.23Q33.45 10.21 33.17 11.19L33.17 11.19L33.17 11.19Q32.89 12.17 32.68 13.08L32.68 13.08L32.68 13.08Q32.47 13.99 32.38 14.63L32.38 14.63L32.38 14.63Q32.28 14.90 32.38 15.09L32.38 15.09L32.38 15.09Q32.47 15.27 32.69 15.41L32.69 15.41L32.69 15.41Q32.91 15.55 33.26 15.65L33.26 15.65L33.26 15.65Q33.61 15.75 34.03 15.83L34.03 15.83L34.03 15.83Q34.47 15.92 34.82 15.99L34.82 15.99L34.82 15.99Q35.17 16.06 35.43 16.07L35.43 16.07L35.43 16.07Q35.70 16.09 35.85 16.02L35.85 16.02L35.85 16.02Q36.01 15.95 36.04 15.75L36.04 15.75L36.04 15.75Q36.32 14.76 36.67 13.65L36.67 13.65L36.67 13.65Q37.03 12.54 37.42 11.42L37.42 11.42L37.42 11.42Q37.81 10.29 38.22 9.19L38.22 9.19L38.22 9.19Q38.63 8.09 39.00 7.10L39.00 7.10L39.00 7.10Q39.90 7.04 40.74 6.99L40.74 6.99L40.74 6.99Q41.58 6.94 42.29 6.90ZM48.40 5.88L48.40 5.88L48.40 5.88Q47.91 5.68 47.26 5.51L47.26 5.51L47.26 5.51Q46.62 5.33 46.06 5.25L46.06 5.25L46.06 5.25Q45.50 5.15 45.23 5.22L45.23 5.22L45.23 5.22Q44.95 5.29 44.80 5.60L44.80 5.60L44.80 5.60Q44.58 6.12 44.32 6.86L44.32 6.86L44.32 6.86Q44.07 7.60 43.81 8.44L43.81 8.44L43.81 8.44Q43.54 9.28 43.29 10.18L43.29 10.18L43.29 10.18Q43.04 11.07 42.83 11.90L42.83 11.90L42.83 11.90Q42.62 12.73 42.45 13.43L42.45 13.43L42.45 13.43Q42.29 14.14 42.24 14.62L42.24 14.62L42.24 14.62Q42.17 14.98 42.31 15.18L42.31 15.18L42.31 15.18Q42.45 15.39 42.91 15.54L42.91 15.54L42.91 15.54Q43.36 15.69 43.84 15.79L43.84 15.79L43.84 15.79Q44.32 15.89 44.86 15.99L44.86 15.99L44.86 15.99Q45.39 16.07 45.57 16.00L45.57 16.00L45.57 16.00Q45.75 15.93 45.84 15.69L45.84 15.69L45.84 15.69Q46.02 15.08 46.26 14.32L46.26 14.32L46.26 14.32Q46.49 13.55 46.77 12.73L46.77 12.73L46.77 12.73Q47.04 11.90 47.33 11.05L47.33 11.05L47.33 11.05Q47.63 10.19 47.92 9.40L47.92 9.40L47.92 9.40Q48.22 8.61 48.50 7.91L48.50 7.91L48.50 7.91Q48.78 7.21 49.01 6.69L49.01 6.69L49.01 6.69Q49.07 6.55 49.08 6.44L49.08 6.44L49.08 6.44Q49.10 6.33 49.03 6.24L49.03 6.24L49.03 6.24Q48.97 6.15 48.82 6.06L48.82 6.06L48.82 6.06Q48.66 5.98 48.40 5.88ZM57.83 11.38L57.83 11.38L57.83 11.38Q57.61 10.75 57.39 10.07L57.39 10.07L57.39 10.07Q57.18 9.39 56.98 8.77L56.98 8.77L56.98 8.77Q56.78 8.15 56.63 7.62L56.63 7.62L56.63 7.62Q56.48 7.10 56.38 6.78L56.38 6.78L56.38 6.78Q56.27 6.36 56.03 6.14L56.03 6.14L56.03 6.14Q55.80 5.92 55.24 5.78L55.24 5.78L55.24 5.78Q54.57 5.59 53.94 5.46L53.94 5.46L53.94 5.46Q53.31 5.33 52.65 5.22L52.65 5.22L52.65 5.22Q52.12 5.14 51.79 5.22L51.79 5.22L51.79 5.22Q51.46 5.31 51.30 5.63L51.30 5.63L51.30 5.63Q51.04 6.22 50.78 7L50.78 7L50.78 7Q50.51 7.78 50.24 8.66L50.24 8.66L50.24 8.66Q49.97 9.53 49.71 10.42L49.71 10.42L49.71 10.42Q49.46 11.31 49.25 12.11L49.25 12.11L49.25 12.11Q49.04 12.91 48.89 13.54L48.89 13.54L48.89 13.54Q48.73 14.18 48.68 14.55L48.68 14.55L48.68 14.55Q48.58 14.91 48.71 15.11L48.71 15.11L48.71 15.11Q48.85 15.32 49.29 15.47L49.29 15.47L49.29 15.47Q49.74 15.67 50.25 15.76L50.25 15.76L50.25 15.76Q50.75 15.85 51.24 15.93L51.24 15.93L51.24 15.93Q51.77 16.03 51.96 15.97L51.96 15.97L51.96 15.97Q52.15 15.90 52.22 15.67L52.22 15.67L52.22 15.67Q52.35 15.16 52.54 14.50L52.54 14.50L52.54 14.50Q52.74 13.85 52.98 13.10L52.98 13.10L52.98 13.10Q53.21 12.36 53.47 11.56L53.47 11.56L53.47 11.56Q53.73 10.75 53.98 9.97L53.98 9.97L53.98 9.97Q54.22 10.63 54.49 11.28L54.49 11.28L54.49 11.28Q54.77 11.94 55.05 12.57L55.05 12.57L55.05 12.57Q55.34 13.19 55.63 13.73L55.63 13.73L55.63 13.73Q55.92 14.28 56.20 14.70L56.20 14.70L56.20 14.70Q56.57 15.32 57.46 15.54L57.46 15.54L57.46 15.54Q57.95 15.65 58.43 15.74L58.43 15.74L58.43 15.74Q58.91 15.83 59.40 15.90L59.40 15.90L59.40 15.90Q60.49 16.07 60.61 15.54L60.61 15.54L60.61 15.54Q60.87 14.57 61.22 13.38L61.22 13.38L61.22 13.38Q61.57 12.18 61.95 10.96L61.95 10.96L61.95 10.96Q62.33 9.74 62.71 8.60L62.71 8.60L62.71 8.60Q63.10 7.46 63.43 6.61L63.43 6.61L63.43 6.61Q63.49 6.47 63.50 6.34L63.50 6.34L63.50 6.34Q63.52 6.22 63.46 6.11L63.46 6.11L63.46 6.11Q63.41 6.01 63.26 5.91L63.26 5.91L63.26 5.91Q63.11 5.81 62.85 5.71L62.85 5.71L62.85 5.71Q62.52 5.59 62.29 5.52L62.29 5.52L62.29 5.52Q62.05 5.45 61.83 5.39L61.83 5.39L61.83 5.39Q61.61 5.33 61.40 5.30L61.40 5.30L61.40 5.30Q61.18 5.26 60.91 5.22L60.91 5.22L60.91 5.22Q60.35 5.14 60.05 5.21L60.05 5.21L60.05 5.21Q59.75 5.29 59.64 5.60L59.64 5.60L59.64 5.60Q59.18 6.79 58.68 8.28L58.68 8.28L58.68 8.28Q58.18 9.77 57.83 11.38ZM72.77 13.17L72.77 13.17L72.77 13.17Q72.91 14.25 73.11 15.08L73.11 15.08L73.11 15.08Q73.21 15.47 73.41 15.62L73.41 15.62L73.41 15.62Q73.61 15.78 74.10 15.88L74.10 15.88L74.10 15.88Q74.59 15.99 75.05 16.01L75.05 16.01L75.05 16.01Q75.50 16.03 76.03 16.03L76.03 16.03L76.03 16.03Q76.57 16.03 76.71 15.93L76.71 15.93L76.71 15.93Q76.86 15.83 76.83 15.58L76.83 15.58L76.83 15.58Q76.71 14.41 76.60 13.11L76.60 13.11L76.60 13.11Q76.50 11.82 76.43 10.57L76.43 10.57L76.43 10.57Q76.36 9.32 76.33 8.21L76.33 8.21L76.33 8.21Q76.31 7.10 76.34 6.30L76.34 6.30L76.34 6.30Q76.36 5.98 76.19 5.78L76.19 5.78L76.19 5.78Q76.02 5.57 75.45 5.46L75.45 5.46L75.45 5.46Q75.04 5.39 74.63 5.32L74.63 5.32L74.63 5.32Q74.23 5.25 73.75 5.19L73.75 5.19L73.75 5.19Q73.28 5.12 72.71 5.08L72.71 5.08L72.71 5.08Q72.14 5.03 71.41 5.00L71.41 5.00L71.41 5.00Q70.59 4.96 70.15 5.14L70.15 5.14L70.15 5.14Q69.72 5.32 69.44 5.61L69.44 5.61L69.44 5.61Q68.92 6.17 68.34 6.87L68.34 6.87L68.34 6.87Q67.76 7.57 67.15 8.35L67.15 8.35L67.15 8.35Q66.54 9.13 65.93 9.94L65.93 9.94L65.93 9.94Q65.32 10.75 64.76 11.54L64.76 11.54L64.76 11.54Q64.20 12.33 63.71 13.07L63.71 13.07L63.71 13.07Q63.22 13.80 62.86 14.42L62.86 14.42L62.86 14.42Q62.71 14.71 62.70 14.89L62.70 14.89L62.70 14.89Q62.69 15.06 62.78 15.18L62.78 15.18L62.78 15.18Q62.87 15.29 63.06 15.37L63.06 15.37L63.06 15.37Q63.24 15.44 63.48 15.55L63.48 15.55L63.48 15.55Q63.77 15.67 64.09 15.76L64.09 15.76L64.09 15.76Q64.41 15.85 64.67 15.92L64.67 15.92L64.67 15.92Q65.13 16.03 65.36 15.99L65.36 15.99L65.36 15.99Q65.59 15.95 65.79 15.71L65.79 15.71L65.79 15.71Q66.08 15.26 66.40 14.79L66.40 14.79L66.40 14.79Q66.72 14.32 67.17 13.79L67.17 13.79L67.17 13.79Q67.73 13.69 68.40 13.61L68.40 13.61L68.40 13.61Q69.06 13.52 69.79 13.45L69.79 13.45L69.79 13.45Q70.52 13.38 71.27 13.31L71.27 13.31L71.27 13.31Q72.03 13.24 72.77 13.17ZM68.98 11.35L68.98 11.35L68.98 11.35Q69.89 10.16 70.76 9.11L70.76 9.11L70.76 9.11Q71.62 8.05 72.34 7.21L72.34 7.21L72.34 7.21Q72.34 8.13 72.39 9.11L72.39 9.11L72.39 9.11Q72.45 10.09 72.52 11.10L72.52 11.10L72.52 11.10Q70.74 11.19 68.98 11.35Z"></path></g><!----><g data-v-423bf9ae="" id="125de433-4793-412b-91aa-99a3017cae20" transform="matrix(1.110911136203342,0,0,1.110911136203342,153.47244837499738,0.46444013567298725)" stroke="none" fill="#F6CE00"><path d="M.065 47.439c.015-.292.045-.579.065-.87-.02.29-.05.578-.065.87zM49.221 99.98c-13.223-.204-25.196-5.534-34.024-14.099 8.828 8.565 20.801 13.896 34.024 14.099zM1.352 61.531c-.125-.526-.251-1.052-.359-1.584.107.532.234 1.058.359 1.584zM14.118 84.803zM93.067 24.606zM82.092 88.333zM91.791 22.561zM80.239 89.812zM97.774 64.79c-.141.454-.299.899-.452 1.348.154-.449.312-.894.452-1.348zM9.576 79.413zM88.99 18.715zM2.781 66.444zM96.997 67.099c-.171.471-.36.934-.546 1.398.186-.465.375-.928.546-1.398zM96.114 69.353c-.204.483-.425.958-.643 1.435.218-.477.439-.952.643-1.435zM90.432 20.598zM2.009 64.025zM.818 58.969c-.087-.481-.18-.961-.253-1.446.073.485.165.964.253 1.446zM92.853 75.768zM91.572 77.781zM95.126 71.552c-.238.497-.493.984-.746 1.472.253-.488.508-.975.746-1.472zM96.338 31.214zM99.182 41.031c.088.481.181.96.254 1.446-.074-.485-.166-.964-.254-1.446zM97.222 33.565zM97.994 35.985zM90.202 79.726zM88.743 81.6zM94.255 26.733zM.137 53.518c-.022-.324-.056-.645-.072-.971.016.326.049.646.072.971zM.412 56.319c-.053-.421-.115-.84-.158-1.264.042.424.104.843.158 1.264zM83.872 86.769zM95.347 28.937zM94.038 73.69zM99.863 46.482c.022.324.056.646.072.971-.016-.326-.049-.647-.072-.971zM99.589 43.681c.053.421.114.84.157 1.264-.043-.424-.104-.843-.157-1.264zM3.003 32.9c.168-.463.355-.917.537-1.374-.182.457-.369.912-.537 1.374zM2.226 35.209c.138-.447.294-.886.445-1.328-.15.442-.307.881-.445 1.328zM6.938 75.403zM83.996 86.651c.275-.256.546-.517.816-.778l-.006-.006c-.269.262-.535.529-.81.784zM98.65 38.478c.124.523.25 1.046.356 1.575-.106-.53-.232-1.052-.356-1.575zM3.887 30.646c.201-.478.419-.946.634-1.416-.215.47-.434.938-.634 1.416zM4.875 28.447c.236-.494.49-.978.742-1.462-.253.484-.506.968-.742 1.462zM99.429 57.578c-.061.395-.139.782-.208 1.174.069-.392.147-.779.208-1.174zM.256 44.911c.036-.352.089-.698.132-1.048-.042.35-.096.696-.132 1.048zM99.743 55.089c-.035.356-.09.707-.133 1.062.043-.355.097-.706.133-1.062zM98.993 60.026c-.084.414-.188.821-.281 1.23.094-.408.197-.816.281-1.23zM.571 42.422c.06-.39.137-.773.206-1.16-.069.386-.146.77-.206 1.16zM99.936 52.561c-.016.295-.047.586-.066.879.019-.294.05-.585.066-.879zM1.56 37.567c.11-.432.239-.856.361-1.283-.122.427-.251.852-.361 1.283zM1.007 39.973c.084-.413.187-.818.281-1.227-.095.408-.197.814-.281 1.227zM85.873 84.812zM4.658 71.074zM98.44 62.433c-.111.436-.241.862-.364 1.293.123-.431.253-.858.364-1.293zM3.666 68.793zM5.751 73.278zM16.003 13.35c-.275.256-.546.516-.815.777l.006.006c.269-.262.534-.528.809-.783zM49.25.019a49.79 49.79 0 0 1 0 0zM5.962 26.309zM8.216 77.451zM14.127 15.188zM85.893 15.208zM9.799 20.273zM87.478 16.92zM11.257 18.4zM7.148 24.23zM8.428 22.218zM16.128 13.23zM17.906 11.668zM14.253 15.055l-.126.132.001.001c.042-.043.083-.089.125-.133zM85.747 84.944c.042-.044.083-.089.126-.132l-.001-.001-.125.133zM50.75 96.981v2c12.963-.195 24.695-5.431 33.351-13.82l-1.415-1.415c-8.293 8.029-19.527 13.04-31.936 13.235z"></path><path d="M83.75 82.689l1.416 1.416c8.396-8.652 13.62-20.391 13.815-33.355h-2c-.195 12.412-5.195 23.65-13.231 31.939zM83.752 17.309c8.033 8.292 13.034 19.531 13.229 31.941h2c-.195-12.964-5.42-24.702-13.814-33.356l-1.415 1.415zM16.25 17.31l-1.416-1.416C6.437 24.546 1.214 36.285 1.019 49.25h2C3.214 36.838 8.214 25.6 16.25 17.31zM3.019 50.75h-2c.196 12.963 5.42 24.701 13.815 33.355l1.415-1.414C8.215 74.398 3.214 63.161 3.019 50.75zM49.25 3.019v-2c-12.963.195-24.696 5.43-33.351 13.82l1.415 1.415C25.607 8.225 36.84 3.214 49.25 3.019zM17.309 83.752l-1.415 1.414c8.654 8.396 20.392 13.62 33.356 13.815v-2c-12.411-.195-23.648-5.196-31.941-13.229z"></path><path d="M4.019 50.75c.195 12.135 5.084 23.123 12.937 31.233L48.189 50.75H4.019zM13 58a2 2 0 1 1-.001-3.999A2 2 0 0 1 13 58zm7 7a2 2 0 1 1-.001-3.999A2 2 0 0 1 20 65zm9-7a2 2 0 1 1-.001-3.999A2 2 0 0 1 29 58zM16.957 18.018C9.102 26.126 4.214 37.114 4.019 49.25H48.19L16.957 18.018zM13 41a2 2 0 1 1-.001-3.999A2 2 0 0 1 13 41zM49.25 48.189V4.019c-12.133.195-23.117 5.094-31.229 12.942L49.25 48.189zM41 24a2 2 0 1 1 .001 3.999A2 2 0 0 1 41 24zm-9-11a2 2 0 1 1 .001 3.999A2 2 0 0 1 32 13zM83.043 81.982c7.855-8.108 12.743-19.097 12.938-31.232h-44.17l31.232 31.232zM84 64a2 2 0 1 1 .001 3.999A2 2 0 0 1 84 64zm-5-9a2 2 0 1 1 .001 3.999A2 2 0 0 1 79 55zm-10 5a2 2 0 1 1 .001 3.999A2 2 0 0 1 69 60zM50.75 95.981c12.133-.194 23.117-5.094 31.229-12.942L50.75 51.811v44.17zM63 81a2 2 0 1 1 .001 3.999A2 2 0 0 1 63 81zm-7-13a2 2 0 1 1 .001 3.999A2 2 0 0 1 56 68zM83.044 18.016L51.811 49.25h44.171c-.196-12.134-5.086-23.123-12.938-31.234zM76 42a2 2 0 1 1-.001-3.999A2 2 0 0 1 76 42zm8-9a2 2 0 1 1-.001-3.999A2 2 0 0 1 84 33zM18.016 83.044c8.111 7.853 19.1 12.742 31.234 12.938V51.811L18.016 83.044zM30 82a2 2 0 1 1-.001-3.999A2 2 0 0 1 30 82zm12 9a2 2 0 1 1-.001-3.999A2 2 0 0 1 42 91zM88.988 18.712l.002.002-.002-.002zM91.76 22.511l.031.05-.031-.05zM87.47 16.911a.065.065 0 0 0 .008.009l-.008-.009zM90.418 20.579l.014.02-.014-.02zM99.746 44.944c.051.509.081 1.024.117 1.538-.036-.513-.066-1.028-.117-1.538zM99.436 42.478c.061.398.103.802.153 1.203-.051-.401-.093-.805-.153-1.203zM97.054 33.067c.059.165.11.333.168.499-.058-.166-.11-.335-.168-.499zM97.812 35.346c.065.211.12.427.182.64-.061-.213-.116-.429-.182-.64zM96.19 30.842c.052.123.097.249.147.373-.05-.124-.095-.25-.147-.373zM99.007 40.053c.065.324.116.653.175.979-.059-.326-.11-.656-.175-.979zM95.227 28.671c.042.088.079.177.12.266-.041-.088-.078-.178-.12-.266zM99.981 49.25c-.009-.601-.016-1.202-.046-1.797.031.595.038 1.196.046 1.797zM98.465 37.674c.067.266.122.536.186.803-.064-.267-.119-.537-.186-.803zM94.166 26.559l.089.174-.089-.174zM93.009 24.504c.021.034.039.068.059.102l-.059-.102zM50.75 99.981l.029-.001-.029.001zM88.995 81.279c-.085.105-.166.215-.252.32.086-.105.167-.214.252-.32zM99.936 52.561c.03-.6.037-1.205.046-1.811-.01.605-.016 1.211-.046 1.811zM97.322 66.138c-.108.32-.209.644-.325.961.116-.318.217-.641.325-.961zM90.486 79.326c-.097.132-.188.268-.284.399.097-.131.188-.267.284-.399zM99.61 56.15c-.059.477-.11.955-.182 1.428.072-.473.124-.951.182-1.428zM83.996 86.651c-.042.038-.082.079-.124.117.042-.038.082-.079.124-.117zM87.416 83.15c-.073.083-.143.168-.216.25.073-.082.143-.167.216-.25zM82.176 88.261l-.084.072c.028-.023.055-.049.084-.072zM85.893 15.208l-.02-.021a.199.199 0 0 0 .02.021zM94.38 73.023c-.115.222-.224.447-.342.667.118-.219.227-.445.342-.667zM91.882 77.298c-.104.16-.203.324-.31.483.107-.159.205-.323.31-.483zM95.472 70.787c-.116.254-.226.513-.346.765.12-.252.229-.511.346-.765zM96.451 68.497c-.113.284-.219.573-.337.855.118-.282.224-.571.337-.855zM93.178 75.201c-.109.188-.213.38-.325.566.112-.186.215-.377.325-.566zM98.076 63.726c-.101.354-.193.713-.302 1.064.109-.352.202-.71.302-1.064zM99.221 58.752c-.075.425-.142.854-.228 1.274.086-.421.153-.849.228-1.274zM80.277 89.782l-.038.03.038-.03zM99.869 53.439c-.037.551-.07 1.104-.126 1.649.056-.545.088-1.098.126-1.649zM98.712 61.257c-.091.393-.172.787-.271 1.176.099-.389.18-.784.271-1.176z"></path><path d="M84.101 85.161c-8.655 8.39-20.388 13.625-33.351 13.82v1l.029-.001a49.797 49.797 0 0 0 29.46-10.168l.038-.03c.616-.47 1.222-.952 1.814-1.449l.084-.072a49.003 49.003 0 0 0 1.696-1.492c.042-.038.082-.079.124-.117.275-.256.541-.522.811-.784l-.705-.707zM85.167 15.894c8.395 8.654 13.619 20.392 13.814 33.356h1c-.009-.601-.016-1.202-.046-1.797-.017-.326-.05-.647-.072-.971-.036-.513-.066-1.028-.117-1.538-.043-.424-.104-.842-.157-1.264-.051-.401-.093-.805-.153-1.203-.073-.486-.166-.965-.254-1.446-.059-.326-.109-.655-.175-.979-.106-.529-.232-1.052-.356-1.575-.063-.268-.118-.538-.186-.803a50.784 50.784 0 0 0-.471-1.689c-.062-.212-.116-.428-.182-.64-.184-.6-.385-1.191-.591-1.78-.058-.166-.109-.334-.168-.499a53.726 53.726 0 0 0-.716-1.853c-.051-.124-.096-.25-.147-.373a49.156 49.156 0 0 0-.844-1.905c-.041-.088-.078-.178-.12-.266-.31-.654-.635-1.3-.972-1.938l-.089-.174a49.612 49.612 0 0 0-1.099-1.952c-.02-.034-.038-.068-.059-.102a48.68 48.68 0 0 0-1.249-1.994 51.69 51.69 0 0 0-1.328-1.913l-.014-.02a50.498 50.498 0 0 0-1.428-1.864l-.002-.002a50.722 50.722 0 0 0-3.096-3.504l-.02-.02-.703.708zM98.981 50.75c-.195 12.965-5.419 24.703-13.815 33.355l.706.706c.45-.464.896-.931 1.328-1.411.073-.082.143-.167.216-.25.451-.509.896-1.023 1.327-1.551.086-.105.167-.215.252-.32.41-.511.816-1.026 1.207-1.554.097-.132.188-.268.284-.399.369-.51.735-1.021 1.086-1.545.106-.159.205-.323.31-.483.331-.506.659-1.013.971-1.53.112-.187.216-.378.325-.566.293-.499.585-1 .86-1.511.118-.22.227-.445.342-.667.253-.487.508-.975.746-1.472.12-.252.229-.511.346-.765.218-.477.438-.951.643-1.435.118-.282.224-.571.337-.855.186-.465.375-.928.546-1.398.116-.317.217-.641.325-.961.153-.448.312-.894.452-1.348.108-.352.201-.71.302-1.064.123-.431.253-.857.364-1.293.1-.389.181-.783.271-1.176.094-.409.197-.816.281-1.23.086-.421.152-.85.228-1.274.069-.392.147-.779.208-1.174.071-.473.123-.951.182-1.428.043-.354.098-.705.133-1.062.056-.546.089-1.099.126-1.649.02-.293.051-.584.066-.879.03-.6.036-1.205.046-1.811h-1.001zM85.747 84.944c-.058.06-.113.121-.172.18.059-.059.114-.12.172-.18zM15.188 85.873l.009.009-.009-.009zM49.25 99.981l-.029-.001.029.001zM15.894 85.166l-.707.707.01.009c8.828 8.564 20.801 13.895 34.024 14.099l.029.001v-1c-12.964-.196-24.702-5.42-33.356-13.816zM.019 50.75c.009.601.016 1.201.046 1.797-.03-.596-.037-1.196-.046-1.797zM8.11 22.714c.107-.165.209-.333.318-.496-.109.163-.211.332-.318.496zM14.118 84.803l.009.009zM5.616 26.985c.117-.225.226-.454.346-.676-.12.222-.229.451-.346.676zM6.811 24.817c.114-.195.222-.394.338-.587-.117.193-.224.393-.338.587zM12.584 16.849l.216-.25c-.073.083-.143.168-.216.25zM9.508 20.683c.098-.136.191-.275.291-.409-.1.134-.193.273-.291.409zM19.732 10.21l.026-.021-.026.021zM.065 47.439c-.03.6-.037 1.206-.046 1.811.009-.605.016-1.211.046-1.811zM17.835 11.73l.071-.062-.071.062zM2.671 33.881c.111-.327.214-.657.332-.981-.118.324-.221.655-.332.981zM16.003 13.35l.125-.119c-.043.039-.083.08-.125.119zM3.54 31.526c.117-.293.225-.59.347-.881-.122.291-.231.588-.347.881zM11.002 18.725c.086-.107.168-.218.255-.325-.087.107-.169.217-.255.325zM4.521 29.229c.119-.26.23-.525.354-.783-.124.259-.235.523-.354.783zM.993 59.947c-.065-.324-.116-.652-.175-.979.059.326.109.655.175.979zM4.772 71.326c-.04-.083-.075-.168-.114-.252.039.084.074.169.114.252zM.564 57.522c-.06-.398-.102-.802-.153-1.203.051.402.093.805.153 1.203zM1.535 62.324c-.066-.262-.121-.529-.183-.793.062.264.116.531.183.793zM.388 43.863c.059-.481.111-.964.183-1.441-.072.477-.124.96-.183 1.441zM9.579 79.418l-.003-.005a.022.022 0 0 1 .003.005zM8.238 77.486l-.022-.035.022.035zM2.187 64.653c-.063-.208-.117-.419-.178-.628.06.209.114.421.178.628zM2.946 66.932c-.058-.161-.109-.326-.165-.487.056.16.107.326.165.487zM.13 46.569c.038-.554.071-1.109.126-1.658-.055.549-.088 1.104-.126 1.658zM.254 55.056c-.051-.509-.081-1.024-.117-1.538.036.513.066 1.029.117 1.538zM5.833 73.439l-.082-.161.082.161zM3.809 69.157c-.05-.12-.095-.243-.144-.364.05.121.094.244.144.364zM1.92 36.284c.102-.358.196-.72.306-1.075-.11.355-.204.717-.306 1.075zM1.288 38.746c.09-.393.172-.789.272-1.178-.1.389-.182.785-.272 1.178zM6.989 75.493c-.018-.029-.034-.06-.051-.09l.051.09zM.777 41.262c.076-.43.144-.863.23-1.289-.087.425-.154.859-.23 1.289z"></path><path d="M14.833 84.105C6.438 75.451 1.214 63.713 1.019 50.75h-1c.009.601.016 1.201.045 1.797.016.326.05.646.072.971.036.514.066 1.029.117 1.538.042.424.104.843.158 1.264.051.401.093.805.153 1.203.073.485.166.965.253 1.446.059.326.109.654.175.979.108.532.234 1.058.359 1.584.062.264.117.531.183.793.145.572.309 1.138.474 1.701.061.209.114.42.178.628.185.603.388 1.197.595 1.791.056.161.107.326.165.487.226.627.469 1.246.719 1.861.049.121.093.244.144.364.269.646.554 1.284.849 1.917.039.084.074.169.114.252.312.659.64 1.31.979 1.952l.082.161c.354.664.723 1.318 1.105 1.964l.051.09a49.388 49.388 0 0 0 1.249 1.993c.431.653.877 1.295 1.337 1.927l.003.005a50.44 50.44 0 0 0 4.539 5.385l.009.01.707-.708zM1.019 49.25c.196-12.965 5.418-24.704 13.815-33.355l-.706-.706c-.45.463-.896.931-1.328 1.411-.073.082-.143.167-.216.25a50.219 50.219 0 0 0-1.327 1.551c-.087.107-.169.217-.255.325-.41.51-.813 1.023-1.203 1.549-.1.134-.193.273-.291.409a50.33 50.33 0 0 0-1.08 1.536c-.109.163-.211.332-.318.496a49.66 49.66 0 0 0-.961 1.516c-.116.193-.224.393-.338.587-.288.494-.576.987-.848 1.491-.12.223-.229.451-.346.676-.252.484-.505.968-.742 1.462-.124.258-.235.522-.354.783-.215.47-.433.938-.634 1.416-.122.291-.23.588-.347.881-.182.457-.368.911-.537 1.374-.118.324-.221.654-.332.981-.15.442-.307.88-.445 1.328-.11.355-.204.717-.306 1.075-.122.427-.25.852-.361 1.283-.1.389-.182.785-.272 1.178-.094.409-.197.814-.281 1.227-.086.426-.154.859-.23 1.289-.068.387-.146.77-.206 1.16-.072.477-.124.96-.183 1.441-.042.35-.096.696-.132 1.048-.055.549-.088 1.104-.126 1.658-.02.291-.051.578-.065.87-.03.6-.037 1.206-.046 1.811h1.001zM15.899 14.839c8.655-8.39 20.388-13.625 33.351-13.82v-1a49.79 49.79 0 0 0-29.491 10.17l-.026.021a50.24 50.24 0 0 0-1.826 1.458l-.071.062c-.58.488-1.15.988-1.707 1.5l-.125.119c-.275.255-.54.521-.81.783l.705.707zM50 0zM49.25 0v.019C49.5.015 49.748 0 50 0h-.75z"></path><path d="M50 0c-.252 0-.5.015-.75.019C49.5.015 49.749 0 50 0zM50.75.019V0H50l.12.003c.211 0 .42.013.63.016z"></path><path d="M50.75.019c-.21-.003-.419-.016-.63-.016.211.004.42.013.63.016zM50.12.003L50 0l.12.003zM15.182 85.867l.006.006zM85.873 15.188l-.012-.013zM84.812 14.127l.012.012z"></path></g><!----></svg>